<svg width="139.890625" height="121.428955" viewBox="0 0 139.891 121.429" fill="none" xmlns="http://www.w3.org/2000/svg" xmlns:xlink="http://www.w3.org/1999/xlink">
	<desc>
			Created with Pixso.
	</desc>
	<defs/>
	<path id="Vector" d="M116.53 101.36C116.54 101.35 116.54 101.33 116.55 101.32C116.57 101.29 116.59 101.26 116.59 101.22C116.6 101.19 116.61 101.15 116.62 101.12C116.63 101.09 116.64 101.05 116.63 101.02C116.63 101 116.64 100.99 116.64 100.97C116.64 100.95 116.63 100.94 116.63 100.92C116.63 100.9 116.62 100.85 116.62 100.82C116.62 100.79 116.6 100.75 116.59 100.72C116.58 100.69 116.57 100.65 116.55 100.62C116.54 100.61 116.54 100.59 116.53 100.58L105.32 81.15L127.74 81.15C127.86 81.15 127.98 81.12 128.09 81.06C128.12 81.04 128.14 81.02 128.17 81C128.25 80.95 128.32 80.89 128.37 80.8C128.38 80.78 128.4 80.77 128.42 80.75L139.78 61.09C139.79 61.08 139.79 61.06 139.8 61.05C139.82 61.02 139.83 60.98 139.84 60.95C139.85 60.92 139.86 60.88 139.87 60.85C139.87 60.82 139.88 60.78 139.88 60.75C139.88 60.73 139.89 60.72 139.89 60.7C139.89 60.68 139.88 60.67 139.88 60.65C139.88 60.63 139.87 60.58 139.87 60.55C139.87 60.52 139.85 60.48 139.84 60.45C139.83 60.42 139.81 60.38 139.8 60.35C139.79 60.34 139.79 60.32 139.78 60.31L128.42 40.64C128.4 40.62 128.38 40.6 128.36 40.57C128.33 40.53 128.29 40.49 128.25 40.45C128.21 40.42 128.17 40.39 128.12 40.36C128.08 40.34 128.04 40.32 127.99 40.3C127.94 40.29 127.89 40.28 127.83 40.27C127.8 40.27 127.77 40.25 127.74 40.25L105.32 40.25L116.53 20.83C116.54 20.82 116.54 20.8 116.55 20.79C116.57 20.76 116.59 20.73 116.59 20.69C116.6 20.66 116.61 20.62 116.62 20.59C116.63 20.56 116.64 20.52 116.63 20.49C116.63 20.47 116.64 20.46 116.64 20.44C116.64 20.42 116.63 20.41 116.63 20.39C116.63 20.37 116.62 20.32 116.62 20.29C116.62 20.26 116.6 20.22 116.59 20.19C116.58 20.16 116.57 20.12 116.55 20.09C116.54 20.08 116.54 20.06 116.53 20.05L105.19 0.38C105.17 0.36 105.15 0.34 105.13 0.31C105.1 0.27 105.06 0.23 105.03 0.19C104.99 0.16 104.94 0.13 104.9 0.1C104.86 0.08 104.81 0.06 104.77 0.05C104.72 0.03 104.66 0.02 104.61 0.02C104.58 0.02 104.55 0 104.52 0L81.82 0C81.8 0 81.79 0.01 81.77 0.01C81.75 0.01 81.7 0.02 81.67 0.02L81.56 0.05C81.52 0.05 81.49 0.07 81.47 0.09C81.45 0.09 81.44 0.1 81.43 0.09L81.4 0.12C81.37 0.14 81.34 0.16 81.32 0.18C81.29 0.21 81.26 0.24 81.24 0.27C81.22 0.29 81.2 0.31 81.18 0.34C81.16 0.36 81.15 0.37 81.15 0.38L69.93 19.81L58.71 0.38C58.7 0.36 58.68 0.34 58.65 0.31C58.62 0.27 58.58 0.23 58.54 0.19C58.51 0.16 58.47 0.14 58.42 0.11C58.38 0.09 58.34 0.07 58.29 0.06C58.24 0.03 58.19 0.02 58.13 0.03C58.1 0.03 58.07 0.01 58.04 0.01L35.34 0.01C35.32 0.01 35.31 0.02 35.29 0.02C35.27 0.02 35.22 0.03 35.19 0.03L35.08 0.06C35.05 0.06 35.02 0.08 34.99 0.09C34.98 0.1 34.97 0.11 34.95 0.1C34.94 0.12 34.93 0.13 34.91 0.13C34.88 0.15 34.86 0.17 34.83 0.19C34.8 0.22 34.78 0.25 34.75 0.28C34.73 0.3 34.71 0.32 34.69 0.35C34.68 0.37 34.67 0.38 34.66 0.39L23.32 20.06C23.3 20.09 23.29 20.12 23.29 20.15C23.27 20.2 23.25 20.25 23.24 20.3C23.22 20.4 23.22 20.5 23.24 20.6C23.25 20.65 23.27 20.7 23.29 20.75C23.29 20.78 23.3 20.81 23.32 20.84L34.53 40.26L12.11 40.26C12.09 40.26 12.08 40.27 12.06 40.27C12.04 40.27 11.99 40.28 11.96 40.28L11.85 40.31C11.82 40.32 11.79 40.34 11.76 40.35C11.75 40.36 11.73 40.36 11.72 40.37L11.69 40.4C11.66 40.42 11.64 40.44 11.61 40.46C11.58 40.49 11.56 40.52 11.53 40.54C11.51 40.57 11.49 40.59 11.47 40.62C11.46 40.64 11.45 40.65 11.44 40.66L0.09 60.33C0.07 60.36 0.06 60.39 0.06 60.42C0.03 60.47 0.02 60.52 0.01 60.57C-0.01 60.67 -0.01 60.77 0.01 60.87C0.02 60.92 0.03 60.97 0.06 61.02C0.06 61.05 0.07 61.08 0.09 61.11L11.44 80.77L11.47 80.8C11.49 80.84 11.51 80.87 11.54 80.89C11.58 80.93 11.62 80.96 11.66 81C11.69 81.02 11.7 81.05 11.73 81.06C11.74 81.07 11.76 81.08 11.77 81.07C11.88 81.13 12 81.16 12.12 81.16L34.54 81.16L23.34 100.59C23.32 100.62 23.31 100.65 23.31 100.68C23.29 100.73 23.27 100.78 23.26 100.83C23.24 100.93 23.24 101.03 23.26 101.13C23.27 101.18 23.29 101.23 23.31 101.28C23.31 101.31 23.32 101.34 23.34 101.37L34.68 121.03L34.71 121.06C34.73 121.1 34.76 121.13 34.78 121.15C34.82 121.19 34.86 121.22 34.9 121.26C34.93 121.28 34.94 121.31 34.97 121.32C34.98 121.33 35 121.34 35.01 121.33C35.12 121.39 35.24 121.42 35.36 121.42L58.06 121.42C58.19 121.42 58.31 121.39 58.41 121.33C58.44 121.31 58.46 121.29 58.49 121.27C58.58 121.22 58.64 121.16 58.69 121.07C58.7 121.05 58.72 121.04 58.74 121.02L69.96 101.6L81.18 121.02L81.21 121.05C81.23 121.09 81.25 121.12 81.28 121.14C81.32 121.18 81.36 121.21 81.4 121.25C81.43 121.27 81.44 121.3 81.47 121.31C81.48 121.32 81.49 121.33 81.51 121.32C81.61 121.38 81.73 121.41 81.86 121.41L104.56 121.41C104.68 121.41 104.8 121.38 104.91 121.32C104.94 121.3 104.96 121.28 104.99 121.26C105.07 121.21 105.14 121.15 105.19 121.06C105.2 121.04 105.22 121.03 105.24 121.01L116.53 101.36ZM104.05 119.84L83.16 119.84L93.6 101.75L114.5 101.75L104.05 119.84ZM57.56 119.84L36.67 119.84L59.01 81.15L79.91 81.15L57.56 119.84ZM13.43 79.57L23.88 61.48L68.55 61.48L58.1 79.57L13.43 79.57ZM12.07 42.6L22.52 60.7L12.07 78.79L1.62 60.7L12.07 42.6ZM24.87 20.43L35.31 2.33L57.65 41.02L47.21 59.12L24.87 20.43ZM81.81 2.34L92.25 20.44L69.92 59.13L59.47 41.03L81.81 2.34ZM104.05 1.55L114.5 19.65L93.6 19.65L83.16 1.55L104.05 1.55ZM127.3 41.82L137.75 59.92L93.07 59.92L82.63 41.82L127.3 41.82ZM81.26 42.6L91.24 59.91L71.26 59.91L81.26 42.6ZM68.55 59.91L48.57 59.91L58.55 42.6L68.55 59.91ZM69.91 62.27L79.9 79.57L59.91 79.57L69.91 62.27ZM71.27 61.49L92.15 61.49L114.49 100.18L93.59 100.18L71.27 61.49ZM93.97 61.49L137.74 61.49L127.29 79.58L104.41 79.58L93.97 61.49ZM82.63 40.24L93.61 21.22L114.51 21.22L103.52 40.24L82.63 40.24ZM58.55 39.47L36.67 1.55L57.56 1.55L69.01 21.37L58.55 39.47ZM45.84 59.91L23.87 59.91L13.42 41.81L35.39 41.81L45.84 59.91ZM57.2 81.15L35.31 119.07L24.87 100.97L36.3 81.15L57.2 81.15ZM81.26 81.93L92.24 100.96L81.8 119.06L70.81 100.02L81.26 81.93Z" fill="#FFFFFF" fill-opacity="1.000000" fill-rule="nonzero"/>
</svg>
