<svg width="149.938599" height="139.989502" viewBox="0 0 149.939 139.99" fill="none" xmlns="http://www.w3.org/2000/svg" xmlns:xlink="http://www.w3.org/1999/xlink">
	<desc>
			Created with Pixso.
	</desc>
	<defs/>
	<path id="Vector" d="M0.01 99.79C0.02 99.85 0.03 99.9 0.06 99.95C0.07 99.98 0.08 100.02 0.09 100.05L11.49 119.81L11.52 119.84C11.54 119.87 11.56 119.9 11.59 119.94C11.63 119.98 11.68 120.02 11.72 120.05C11.75 120.07 11.77 120.1 11.8 120.12C11.82 120.13 11.83 120.13 11.84 120.13C11.96 120.19 12.08 120.23 12.21 120.23L57.35 120.23L68.52 139.57L68.55 139.6C68.57 139.62 68.59 139.65 68.62 139.69C68.65 139.74 68.7 139.77 68.75 139.81C68.78 139.83 68.8 139.85 68.83 139.87C68.84 139.88 68.85 139.89 68.87 139.88C68.98 139.95 69.11 139.98 69.24 139.99L137.67 139.99C137.81 139.98 137.94 139.95 138.06 139.88L138.14 139.83C138.23 139.77 138.31 139.7 138.37 139.62C138.38 139.6 138.41 139.59 138.42 139.57L149.82 119.81C149.83 119.79 149.83 119.78 149.84 119.76C149.86 119.73 149.88 119.69 149.88 119.66C149.89 119.62 149.9 119.59 149.91 119.55C149.92 119.51 149.92 119.47 149.92 119.44C149.92 119.42 149.93 119.41 149.93 119.39C149.93 119.37 149.92 119.36 149.92 119.34C149.92 119.3 149.91 119.27 149.91 119.23C149.91 119.19 149.89 119.16 149.88 119.12C149.87 119.08 149.86 119.05 149.84 119.02C149.83 119 149.83 118.99 149.82 118.97L127.26 79.88L138.42 60.55C138.42 60.53 138.42 60.52 138.44 60.5C138.45 60.46 138.47 60.43 138.48 60.4C138.49 60.36 138.5 60.33 138.5 60.29C138.51 60.25 138.52 60.21 138.52 60.18C138.52 60.16 138.53 60.15 138.53 60.13C138.53 60.11 138.52 60.1 138.52 60.08C138.52 60.04 138.5 60.01 138.5 59.97C138.5 59.93 138.49 59.9 138.48 59.86C138.46 59.82 138.45 59.79 138.44 59.76C138.42 59.74 138.42 59.73 138.42 59.71L104.21 0.42C104.19 0.39 104.16 0.37 104.14 0.34C104.11 0.3 104.07 0.26 104.03 0.21C103.99 0.18 103.95 0.15 103.9 0.12C103.86 0.1 103.81 0.07 103.76 0.06C103.7 0.04 103.64 0.02 103.58 0.02C103.55 0.02 103.52 0 103.48 0L80.66 0C80.64 0 80.63 0.01 80.61 0.01C80.57 0.01 80.54 0.02 80.5 0.02L80.38 0.05C80.35 0.06 80.31 0.08 80.28 0.09C80.25 0.1 80.25 0.1 80.23 0.1C80.22 0.12 80.21 0.13 80.19 0.13C80.16 0.16 80.13 0.18 80.1 0.2C80.07 0.23 80.05 0.26 80.02 0.29C80 0.32 79.97 0.34 79.95 0.37C79.94 0.39 79.93 0.4 79.92 0.41L57.36 39.51L35.04 39.51C35.02 39.51 35.01 39.52 34.99 39.52C34.95 39.52 34.92 39.53 34.88 39.53C34.84 39.53 34.8 39.55 34.77 39.56C34.74 39.57 34.7 39.58 34.67 39.6C34.65 39.61 34.64 39.61 34.62 39.62C34.6 39.63 34.6 39.64 34.58 39.65C34.55 39.67 34.52 39.69 34.49 39.72C34.46 39.74 34.43 39.77 34.41 39.8C34.39 39.83 34.36 39.86 34.34 39.89C34.33 39.9 34.32 39.91 34.31 39.93L0.1 99.21C0.08 99.24 0.07 99.28 0.07 99.31C0.04 99.36 0.03 99.42 0.02 99.47C0 99.52 -0.01 99.58 0 99.63C-0.01 99.68 0 99.74 0.01 99.79ZM102.99 1.69L136.24 59.28L115.38 59.28L82.12 1.69L102.99 1.69ZM114.4 98.79L93.53 98.79L115.37 60.96L136.24 60.96L114.4 98.79ZM80.66 2.53L113.91 60.12L92.07 97.95L81.64 79.87L92.81 60.54C92.82 60.52 92.82 60.51 92.83 60.49C92.85 60.45 92.86 60.42 92.87 60.39C92.88 60.35 92.89 60.32 92.9 60.28C92.91 60.24 92.91 60.2 92.91 60.17C92.91 60.15 92.92 60.14 92.92 60.12C92.92 60.1 92.91 60.09 92.91 60.07C92.91 60.03 92.9 60 92.9 59.96C92.9 59.92 92.88 59.89 92.87 59.85C92.86 59.81 92.85 59.78 92.83 59.75C92.82 59.73 92.82 59.72 92.81 59.7L81.39 39.94C81.37 39.91 81.34 39.89 81.32 39.86C81.29 39.81 81.25 39.77 81.21 39.73C81.17 39.7 81.13 39.67 81.08 39.64C81.04 39.61 80.99 39.59 80.94 39.57C80.89 39.55 80.83 39.54 80.77 39.54C80.74 39.54 80.7 39.52 80.67 39.52L59.32 39.52L80.66 2.53ZM57.86 41.21L80.18 41.21L90.62 59.28L46.94 59.28L36.5 41.21L57.86 41.21ZM35.04 42.05L45.47 60.12L12.22 117.7L1.8 99.63L35.04 42.05ZM13.69 118.54L46.94 60.96L90.62 60.96L80.18 79.03L57.86 79.03C57.84 79.03 57.83 79.04 57.81 79.04C57.77 79.04 57.74 79.05 57.7 79.05L57.58 79.08C57.55 79.09 57.51 79.11 57.48 79.12C57.45 79.13 57.45 79.13 57.43 79.14C57.42 79.16 57.4 79.17 57.39 79.17C57.35 79.19 57.32 79.22 57.3 79.24C57.27 79.27 57.24 79.29 57.22 79.32C57.2 79.35 57.17 79.38 57.15 79.41C57.14 79.42 57.12 79.43 57.12 79.45L45.71 99.21C45.69 99.24 45.68 99.28 45.68 99.31C45.66 99.36 45.64 99.42 45.63 99.47C45.62 99.52 45.62 99.58 45.62 99.63C45.62 99.68 45.62 99.74 45.63 99.79C45.64 99.85 45.66 99.9 45.68 99.95C45.69 99.98 45.7 100.02 45.71 100.05L56.39 118.54L13.69 118.54ZM137.22 138.3L70.73 138.3L81.15 120.23L147.64 120.23L137.22 138.3ZM69.27 137.46L47.43 99.63L57.87 81.55L79.7 119.38L69.27 137.46ZM147.64 118.54L81.15 118.54L59.32 80.71L80.18 80.71L91.35 100.05L91.38 100.08C91.4 100.12 91.43 100.15 91.45 100.18C91.49 100.22 91.53 100.26 91.58 100.29C91.61 100.31 91.63 100.34 91.66 100.36C91.67 100.37 91.69 100.37 91.7 100.37C91.82 100.43 91.94 100.47 92.07 100.47L114.89 100.47C115.02 100.47 115.15 100.43 115.27 100.37L115.36 100.31C115.44 100.25 115.52 100.18 115.58 100.1C115.59 100.08 115.62 100.07 115.63 100.05L126.31 81.55L147.64 118.54Z" fill="#FFFFFF" fill-opacity="1.000000" fill-rule="nonzero"/>
</svg>
