<svg width="139.065918" height="142.115234" viewBox="0 0 139.066 142.115" fill="none" xmlns="http://www.w3.org/2000/svg" xmlns:xlink="http://www.w3.org/1999/xlink">
	<desc>
			Created with Pixso.
	</desc>
	<defs/>
	<path id="Vector" d="M111.68 13.94C99.27 5.12 84.32 0.59 69.1 1.03C53.88 1.47 39.21 6.86 27.33 16.38C15.45 25.9 6.99 39.04 3.24 53.79C-0.51 68.55 0.66 84.13 6.56 98.17C12.46 112.21 22.77 123.94 35.94 131.59C49.1 139.24 64.4 142.39 79.52 140.57C94.64 138.74 108.75 132.04 119.72 121.47L119.75 121.47L120.32 120.9C123.07 118.14 124.61 114.4 124.6 110.5C124.6 106.6 123.05 102.87 120.29 100.11C117.54 97.35 113.8 95.8 109.9 95.8C106 95.79 102.26 97.33 99.5 100.09L99.5 100.08C93.86 105.59 86.74 109.34 79 110.87C71.27 112.41 63.26 111.65 55.94 108.7C48.63 105.74 42.34 100.72 37.84 94.25C33.34 87.78 30.82 80.13 30.59 72.25C30.37 64.37 32.45 56.59 36.57 49.87C40.7 43.15 46.69 37.78 53.82 34.42C60.96 31.05 68.91 29.84 76.72 30.93C84.53 32.01 91.86 35.35 97.8 40.54L99.77 42.52C100.69 43.45 101.2 44.71 101.2 46.02C101.19 47.33 100.67 48.59 99.74 49.51C98.82 50.44 97.56 50.96 96.25 50.97C94.94 50.97 93.68 50.46 92.75 49.54L90.02 46.8L89.92 46.9C89.87 46.78 89.8 46.67 89.71 46.58C85.07 43.07 79.54 40.94 73.74 40.45C67.95 39.96 62.14 41.13 56.98 43.81C51.82 46.49 47.52 50.57 44.59 55.6C41.66 60.62 40.22 66.37 40.43 72.18C40.63 77.99 42.49 83.62 45.77 88.42C49.05 93.23 53.62 97 58.96 99.3C64.29 101.61 70.18 102.35 75.92 101.45C81.66 100.55 87.03 98.04 91.41 94.21C92.23 93.29 92.68 92.09 92.67 90.86C92.67 89.62 92.2 88.44 91.37 87.53C89.4 85.4 86.03 85.96 84.36 87.33C81.31 89.8 77.63 91.37 73.74 91.86C69.84 92.34 65.89 91.72 62.33 90.06C58.77 88.41 55.75 85.78 53.62 82.49C51.48 79.2 50.31 75.38 50.24 71.45C50.18 67.53 51.21 63.66 53.24 60.3C55.26 56.94 58.19 54.22 61.69 52.44C65.19 50.67 69.12 49.91 73.03 50.26C76.94 50.61 80.67 52.06 83.8 54.43L83.83 54.41L85.6 56.18C88.36 58.93 92.1 60.47 96 60.47C99.9 60.46 103.64 58.91 106.39 56.15C109.15 53.4 110.7 49.66 110.7 45.76C110.71 41.86 109.17 38.12 106.42 35.36L106.2 35.14C106.16 34.98 106.09 34.84 105.98 34.72C98.81 27.86 89.79 23.28 80.03 21.53C70.27 19.78 60.21 20.95 51.11 24.9C42.02 28.84 34.29 35.38 28.9 43.7C23.5 52.02 20.68 61.75 20.79 71.66C20.9 81.57 23.93 91.23 29.51 99.43C35.08 107.63 42.95 114 52.13 117.75C61.31 121.49 71.39 122.44 81.11 120.48C90.83 118.52 99.75 113.74 106.77 106.72C106.78 106.69 106.8 106.66 106.82 106.63C107.72 105.78 108.9 105.31 110.14 105.29C111.38 105.28 112.57 105.73 113.49 106.55C114.42 107.37 115 108.51 115.12 109.74C115.24 110.97 114.9 112.2 114.17 113.19C105.03 122.52 93.12 128.63 80.21 130.59C67.31 132.55 54.12 130.26 42.63 124.06C31.14 117.87 21.97 108.1 16.52 96.24C11.07 84.38 9.62 71.07 12.39 58.32C15.17 45.57 22.02 34.06 31.9 25.54C41.79 17.02 54.18 11.94 67.21 11.08C80.23 10.22 93.18 13.62 104.11 20.76C115.03 27.91 123.33 38.41 127.77 50.69C128.5 52.72 130.2 55.68 133.69 55.46C134.37 55.46 135.03 55.3 135.64 55C136.24 54.7 136.77 54.26 137.18 53.72C137.58 53.18 137.86 52.56 137.98 51.89C138.11 51.23 138.08 50.55 137.89 49.9C133.3 35.38 124.1 22.76 111.68 13.94Z" stroke="#FFFFFF" stroke-opacity="1.000000" stroke-width="1.999899" stroke-linejoin="round"/>
</svg>
